<?xml version="1.0" standalone="no"?>
<!DOCTYPE svg PUBLIC "-//W3C//DTD SVG 20010904//EN"
 "http://www.w3.org/TR/2001/REC-SVG-20010904/DTD/svg10.dtd">
<svg version="1.0" xmlns="http://www.w3.org/2000/svg"
 width="200.000000pt" height="200.000000pt" viewBox="0 0 200.000000 200.000000"
 preserveAspectRatio="xMidYMid meet">
<metadata>
Created by potrace 1.11, written by Peter Selinger 2001-2013
</metadata>
<g transform="translate(0.000000,200.000000) scale(0.100000,-0.100000)"
fill="#000000" stroke="none">
<path d="M865 1613 c-6 -40 -12 -103 -15 -160 0 -6 -9 -15 -20 -18 -14 -4 -20
-15 -20 -35 0 -20 -6 -31 -19 -35 -30 -9 -94 -78 -124 -132 -97 -180 -62 -520
72 -698 l42 -55 -25 -11 c-14 -7 -30 -24 -36 -40 -7 -16 -16 -27 -20 -24 -4 3
-32 -8 -63 -23 -50 -25 -56 -26 -77 -13 -12 8 -48 20 -78 26 -130 26 -277 -50
-334 -173 -24 -52 -34 -132 -24 -187 l7 -35 935 0 934 0 -2 182 -3 183 -42 23
c-125 69 -307 50 -394 -42 -22 -24 -46 -36 -36 -18 3 4 -5 25 -17 47 -24 44
-91 85 -137 85 -17 0 -28 6 -31 18 -6 21 -58 48 -103 55 -34 5 -34 13 -2 65
39 62 47 114 42 296 -4 177 -14 246 -46 335 -37 101 -93 158 -178 181 -23 6
-45 18 -48 26 -3 7 -15 14 -27 14 -17 0 -25 13 -46 78 -13 42 -32 90 -41 105
l-17 28 -7 -48z"/>
</g>
</svg>
